<?xml version="1.0" encoding="utf-8"?>
<!-- Generator: Adobe Illustrator 26.0.0, SVG Export Plug-In . SVG Version: 6.00 Build 0)  -->
<svg version="1.1" id="Capa_1" xmlns="http://www.w3.org/2000/svg" xmlns:xlink="http://www.w3.org/1999/xlink" x="0px" y="0px"
	 viewBox="0 0 500 700" style="enable-background:new 0 0 500 700;" xml:space="preserve">
<style type="text/css">
	.st0{fill:#FFFFFF;stroke:#000000;stroke-miterlimit:10;}
</style>
<rect x="0" class="st0" width="166.67" height="116.67"/>
<rect x="166.67" class="st0" width="166.67" height="116.67"/>
<rect x="393.16" class="st0" width="106.84" height="116.67"/>
<rect x="0" y="116.67" class="st0" width="166.67" height="116.67"/>
<rect x="166.67" y="116.67" class="st0" width="166.67" height="116.67"/>
<rect x="393.16" y="116.67" class="st0" width="106.84" height="116.67"/>
<rect x="0" y="233.33" class="st0" width="166.67" height="116.67"/>
<rect x="166.67" y="233.33" class="st0" width="166.67" height="116.67"/>
<rect x="393.16" y="233.33" class="st0" width="106.84" height="116.67"/>
<rect x="0" y="350" class="st0" width="166.67" height="116.67"/>
<rect x="166.67" y="350" class="st0" width="166.67" height="116.67"/>
<rect x="333.33" y="350" class="st0" width="166.67" height="116.67"/>
<rect x="0" y="466.67" class="st0" width="166.67" height="116.67"/>
<rect x="166.67" y="466.67" class="st0" width="166.67" height="116.67"/>
<rect x="333.33" y="466.67" class="st0" width="166.67" height="116.67"/>
<rect x="0" y="583.33" class="st0" width="166.67" height="116.67"/>
<rect x="166.67" y="583.33" class="st0" width="166.67" height="116.67"/>
<rect x="333.33" y="583.33" class="st0" width="166.67" height="116.67"/>
</svg>
